<?xml version="1.0" encoding="utf-8"?>
<!-- Generator: Adobe Illustrator 28.0.0, SVG Export Plug-In . SVG Version: 6.00 Build 0)  -->
<svg version="1.1" id="Capa_1" xmlns="http://www.w3.org/2000/svg" xmlns:xlink="http://www.w3.org/1999/xlink" x="0px" y="0px"
	 viewBox="0 0 19.5 17.91" style="enable-background:new 0 0 19.5 17.91;" xml:space="preserve">
<style type="text/css">
	.st0{fill:#020203;}
</style>
<g>
	<path class="st0" d="M10.3,3.94c-0.14,0.11-0.33,0.32-0.41,0.73c-0.03,0.15,0.18,0.22,0.29,0.11c0.31-0.33,0.75-0.64,1.23-0.58
		c0.14,0.02,0.26-0.11,0.16-0.2C11.24,3.72,10.7,3.64,10.3,3.94z"/>
	<path class="st0" d="M13.08,3.9c-0.04,0.01-0.07,0.02-0.11,0.04c-0.01-0.04-0.02-0.07-0.04-0.11c-1.04-2.66-6.98-1.57-2.95,5.56
		l0,0l-0.26,0.2c0,0,0,0,0,0C9.65,9.64,9.64,9.74,9.69,9.81s0.15,0.08,0.22,0.03L9.95,9.8c-0.04,0.09-0.07,0.18-0.09,0.27
		c-0.01,0.03-0.01,0.07-0.01,0.1h0.03C9.83,10.6,9.7,11.01,9.53,11.4c-0.1,0.23-0.21,0.54-0.36,0.79c-0.4-0.71-1.47-1.12-2-0.3
		c-0.21,0.32-0.21,0.76,0.07,1.04c0.32,0.3,0.81,0.26,1.2,0.16c0.19-0.05,0.37-0.12,0.55-0.21C8.99,12.9,9,12.93,9,12.96
		c0.04,0.8-0.43,1.51-1.12,1.88c-0.86,0.46-1.87,0.43-2.81,0.4c-0.24-0.01-0.24,0.37,0,0.38c1.11,0.04,2.33,0.05,3.28-0.62
		c0.74-0.53,1.19-1.5,0.97-2.39c0.14-0.18,0.24-0.38,0.34-0.58c0.28-0.6,0.54-1.21,0.6-1.88c0.01-0.06-0.01-0.11-0.05-0.14
		c0-0.01,0.01-0.02,0.01-0.04l0,0.01c0,0.09,0.07,0.16,0.16,0.15c0.09,0,0.16-0.07,0.15-0.16l0-0.33
		C18.62,8.42,15.81,3.08,13.08,3.9z M7.85,12.78c-0.37-0.03-0.57-0.35-0.37-0.68c0.2-0.34,0.63-0.36,0.95-0.18
		c0.24,0.13,0.39,0.34,0.48,0.59C8.64,12.7,8.18,12.81,7.85,12.78z M14.27,7.68c-0.72,0.55-1.91,1.05-3.78,1.34
		c-0.92-1.65-1.26-2.9-1.27-3.8c-0.02-0.95,0.32-1.5,0.7-1.79c0.84-0.63,2.13-0.27,2.45,0.69l0.2,0.61l0.6-0.22
		c0.95-0.34,2.03,0.45,2.06,1.5C15.25,6.51,15.02,7.11,14.27,7.68z"/>
</g>
</svg>
